# This file uses centimeters as units for non-parametric coordinates.

mtllib gearSimple.mtl
g default
v 0.624140 0.482747 -0.624140
v -0.000000 0.482747 -0.882667
v -0.624140 0.482747 -0.624140
v -0.882667 0.482747 0.000000
v -0.624140 0.482747 0.624140
v -0.000000 0.482747 0.882667
v 0.624140 0.482747 0.624140
v 0.882667 0.482747 0.000000
v 0.957107 0.353553 -0.957107
v 0.000000 0.353553 -1.353553
v -0.957107 0.353553 -0.957107
v -1.353553 0.353553 0.000000
v -0.957107 0.353553 0.957107
v 0.000000 0.353553 1.353553
v 0.957107 0.353553 0.957107
v 1.353553 0.353553 0.000000
v 0.957107 -0.353553 -0.957107
v 0.000000 -0.353553 -1.353553
v -0.957107 -0.353553 -0.957107
v -1.353553 -0.353553 0.000000
v -0.957107 -0.353553 0.957107
v 0.000000 -0.353553 1.353553
v 0.957107 -0.353553 0.957107
v 1.353553 -0.353553 0.000000
v 0.624140 -0.482747 -0.624140
v -0.000000 -0.482747 -0.882667
v -0.624140 -0.482747 -0.624140
v -0.882667 -0.482747 0.000000
v -0.624140 -0.482747 0.624140
v -0.000000 -0.482747 0.882667
v 0.624140 -0.482747 0.624140
v 0.882667 -0.482747 0.000000
v 1.211167 0.353553 -1.850335
v 0.451960 0.353553 -2.164809
v 1.211167 -0.353554 -1.850335
v 0.451960 -0.353554 -2.164809
v -0.451960 0.353553 -2.164809
v -1.211167 0.353553 -1.850335
v -0.451960 -0.353554 -2.164809
v -1.211167 -0.353554 -1.850335
v -1.850336 0.353553 -1.211167
v -2.164809 0.353553 -0.451960
v -1.850336 -0.353553 -1.211167
v -2.164809 -0.353553 -0.451960
v -2.164809 0.353553 0.451960
v -1.850336 0.353553 1.211167
v -2.164809 -0.353553 0.451960
v -1.850336 -0.353553 1.211167
v -1.211167 0.353553 1.850335
v -0.451960 0.353553 2.164809
v -1.211167 -0.353554 1.850335
v -0.451960 -0.353554 2.164809
v 0.451960 0.353553 2.164809
v 1.211167 0.353553 1.850335
v 0.451960 -0.353554 2.164809
v 1.211167 -0.353554 1.850335
v 1.850335 0.353553 1.211167
v 2.164809 0.353553 0.451960
v 1.850335 -0.353554 1.211167
v 2.164809 -0.353554 0.451960
v 2.164809 0.353553 -0.451960
v 1.850335 0.353553 -1.211167
v 2.164809 -0.353554 -0.451960
v 1.850335 -0.353554 -1.211167
vt 0.000000 1.000000
vt 0.125000 1.000000
vt 0.250000 1.000000
vt 0.375000 1.000000
vt 0.500000 1.000000
vt 0.625000 1.000000
vt 0.750000 1.000000
vt 0.875000 1.000000
vt 1.000000 1.000000
vt 0.000000 0.750000
vt 0.125000 0.750000
vt 0.250000 0.750000
vt 0.375000 0.750000
vt 0.500000 0.750000
vt 0.625000 0.750000
vt 0.750000 0.750000
vt 0.875000 0.750000
vt 1.000000 0.750000
vt 0.000000 0.500000
vt 0.125000 0.500000
vt 0.250000 0.500000
vt 0.375000 0.500000
vt 0.500000 0.500000
vt 0.625000 0.500000
vt 0.750000 0.500000
vt 0.875000 0.500000
vt 1.000000 0.500000
vt 0.000000 0.250000
vt 0.125000 0.250000
vt 0.250000 0.250000
vt 0.375000 0.250000
vt 0.500000 0.250000
vt 0.625000 0.250000
vt 0.750000 0.250000
vt 0.875000 0.250000
vt 1.000000 0.250000
vt 0.000000 0.000000
vt 0.125000 0.000000
vt 0.250000 0.000000
vt 0.375000 0.000000
vt 0.500000 0.000000
vt 0.625000 0.000000
vt 0.750000 0.000000
vt 0.875000 0.000000
vt 1.000000 0.000000
vt 0.125000 0.750000
vt 0.000000 0.750000
vt 0.000000 0.500000
vt 0.125000 0.500000
vt 0.250000 0.750000
vt 0.125000 0.750000
vt 0.125000 0.500000
vt 0.250000 0.500000
vt 0.375000 0.750000
vt 0.250000 0.750000
vt 0.250000 0.500000
vt 0.375000 0.500000
vt 0.500000 0.750000
vt 0.375000 0.750000
vt 0.375000 0.500000
vt 0.500000 0.500000
vt 0.625000 0.750000
vt 0.500000 0.750000
vt 0.500000 0.500000
vt 0.625000 0.500000
vt 0.750000 0.750000
vt 0.625000 0.750000
vt 0.625000 0.500000
vt 0.750000 0.500000
vt 0.875000 0.750000
vt 0.750000 0.750000
vt 0.750000 0.500000
vt 0.875000 0.500000
vt 1.000000 0.750000
vt 0.875000 0.750000
vt 0.875000 0.500000
vt 1.000000 0.500000
vn 0.000000 0.964363 -0.264585
vn 0.187090 0.964363 -0.187090
vn 0.050817 0.997414 -0.050817
vn -0.000000 0.997414 -0.071867
vn -0.187090 0.964362 -0.187090
vn -0.050817 0.997414 -0.050817
vn -0.264585 0.964363 0.000000
vn -0.071866 0.997414 0.000000
vn -0.187090 0.964363 0.187090
vn -0.050817 0.997414 0.050817
vn -0.000000 0.964363 0.264585
vn -0.000000 0.997414 0.071867
vn 0.187090 0.964363 0.187090
vn 0.050817 0.997414 0.050817
vn 0.264585 0.964363 -0.000000
vn 0.071867 0.997414 -0.000000
vn 0.382683 -0.000000 -0.923880
vn 0.382683 -0.000000 -0.923880
vn 0.382683 -0.000000 -0.923880
vn 0.382683 -0.000000 -0.923880
vn -0.382683 -0.000000 -0.923880
vn -0.382683 -0.000000 -0.923880
vn -0.382683 -0.000000 -0.923880
vn -0.382683 -0.000000 -0.923880
vn -0.923880 -0.000000 -0.382683
vn -0.923880 -0.000000 -0.382683
vn -0.923880 -0.000000 -0.382683
vn -0.923880 -0.000000 -0.382683
vn -0.923880 -0.000000 0.382683
vn -0.923880 -0.000000 0.382683
vn -0.923880 -0.000000 0.382683
vn -0.923880 -0.000000 0.382683
vn -0.382683 -0.000000 0.923880
vn -0.382683 -0.000000 0.923880
vn -0.382683 -0.000000 0.923880
vn -0.382683 -0.000000 0.923880
vn 0.382683 0.000000 0.923880
vn 0.382683 0.000000 0.923880
vn 0.382683 0.000000 0.923880
vn 0.382683 0.000000 0.923880
vn 0.923880 -0.000000 0.382683
vn 0.923880 -0.000000 0.382683
vn 0.923880 -0.000000 0.382683
vn 0.923880 -0.000000 0.382683
vn 0.923880 -0.000000 -0.382684
vn 0.923880 -0.000000 -0.382683
vn 0.923880 -0.000000 -0.382683
vn 0.923880 -0.000000 -0.382683
vn 0.000000 -0.997414 -0.071866
vn 0.050817 -0.997414 -0.050817
vn 0.187089 -0.964363 -0.187089
vn -0.000000 -0.964363 -0.264584
vn -0.050817 -0.997414 -0.050817
vn -0.187089 -0.964363 -0.187089
vn -0.071866 -0.997414 -0.000000
vn -0.264584 -0.964363 -0.000000
vn -0.050817 -0.997414 0.050817
vn -0.187089 -0.964363 0.187089
vn -0.029755 -0.996973 0.071834
vn -0.108942 -0.958623 0.263010
vn 0.050817 -0.997414 0.050817
vn 0.029755 -0.996973 0.071834
vn 0.108942 -0.958623 0.263010
vn 0.187089 -0.964363 0.187089
vn 0.071866 -0.997414 0.000000
vn 0.264584 -0.964363 -0.000000
vn -0.382684 0.000000 0.923880
vn -0.382684 0.000000 0.923880
vn -0.382684 0.000000 0.923880
vn -0.382684 0.000000 0.923880
vn 0.382684 0.000000 0.923880
vn 0.382684 0.000000 0.923880
vn 0.382684 0.000000 0.923880
vn 0.382684 0.000000 0.923880
vn 0.923880 0.000000 0.382684
vn 0.923880 0.000000 0.382684
vn 0.923880 0.000000 0.382684
vn 0.923880 0.000000 0.382684
vn 0.923880 0.000000 -0.382684
vn 0.923880 0.000000 -0.382684
vn 0.923880 0.000000 -0.382684
vn 0.923880 0.000000 -0.382684
vn 0.382684 0.000000 -0.923880
vn 0.382684 0.000000 -0.923880
vn 0.382684 0.000000 -0.923880
vn 0.382684 0.000000 -0.923880
vn -0.382683 0.000000 -0.923880
vn -0.382683 0.000000 -0.923880
vn -0.382684 0.000000 -0.923880
vn -0.382684 0.000000 -0.923880
vn -0.923879 0.000000 -0.382684
vn -0.923879 0.000000 -0.382684
vn -0.923880 0.000000 -0.382684
vn -0.923880 0.000000 -0.382684
vn -0.923879 0.000000 0.382684
vn -0.923879 0.000000 0.382684
vn -0.923880 0.000000 0.382684
vn -0.923879 0.000000 0.382684
vn 0.000000 1.000000 -0.000000
vn 0.000000 1.000000 -0.000000
vn 0.961850 -0.000000 0.273579
vn 0.961850 -0.000000 0.273579
vn 0.961850 -0.000000 0.273579
vn 0.961850 -0.000000 0.273579
vn -0.000000 -1.000000 0.000000
vn -0.000000 -1.000000 0.000000
vn -0.873580 -0.000000 -0.486681
vn -0.873580 -0.000000 -0.486681
vn -0.873580 -0.000000 -0.486681
vn -0.873580 -0.000000 -0.486681
vn -0.000000 1.000000 -0.000000
vn -0.000000 1.000000 -0.000000
vn 0.873580 -0.000000 -0.486681
vn 0.873580 -0.000000 -0.486681
vn 0.873580 -0.000000 -0.486681
vn 0.873580 -0.000000 -0.486681
vn 0.000000 -1.000000 0.000000
vn 0.000000 -1.000000 0.000000
vn -0.961850 -0.000000 0.273579
vn -0.961850 -0.000000 0.273579
vn -0.961850 -0.000000 0.273579
vn -0.961850 -0.000000 0.273579
vn 0.000000 1.000000 0.000000
vn 0.000000 1.000000 0.000000
vn 0.273578 -0.000000 -0.961850
vn 0.273578 -0.000000 -0.961850
vn 0.273578 -0.000000 -0.961850
vn 0.273578 -0.000000 -0.961850
vn 0.000000 -1.000000 -0.000000
vn 0.000000 -1.000000 -0.000000
vn -0.486681 -0.000000 0.873580
vn -0.486681 -0.000000 0.873580
vn -0.486681 -0.000000 0.873580
vn -0.486681 -0.000000 0.873580
vn 0.000000 1.000000 0.000000
vn 0.000000 1.000000 0.000000
vn -0.486681 -0.000000 -0.873580
vn -0.486681 -0.000000 -0.873580
vn -0.486681 -0.000000 -0.873580
vn -0.486681 -0.000000 -0.873580
vn 0.000000 -1.000000 0.000000
vn 0.000000 -1.000000 0.000000
vn 0.273578 -0.000000 0.961850
vn 0.273578 -0.000000 0.961850
vn 0.273578 -0.000000 0.961850
vn 0.273578 -0.000000 0.961850
vn -0.000000 1.000000 0.000000
vn -0.000000 1.000000 0.000000
vn -0.961850 -0.000000 -0.273579
vn -0.961850 -0.000000 -0.273579
vn -0.961850 -0.000000 -0.273579
vn -0.961850 -0.000000 -0.273579
vn 0.000000 -1.000000 -0.000000
vn 0.000000 -1.000000 -0.000000
vn 0.873580 -0.000000 0.486681
vn 0.873580 -0.000000 0.486681
vn 0.873580 -0.000000 0.486681
vn 0.873580 -0.000000 0.486681
vn 0.000000 1.000000 0.000000
vn 0.000000 1.000000 0.000000
vn -0.873580 -0.000000 0.486681
vn -0.873580 -0.000000 0.486681
vn -0.873580 -0.000000 0.486681
vn -0.873580 -0.000000 0.486681
vn -0.000000 -1.000000 -0.000000
vn -0.000000 -1.000000 -0.000000
vn 0.961850 0.000000 -0.273578
vn 0.961850 0.000000 -0.273578
vn 0.961850 0.000000 -0.273578
vn 0.961850 0.000000 -0.273578
vn 0.000000 1.000000 0.000000
vn 0.000000 1.000000 0.000000
vn -0.273578 -0.000000 0.961850
vn -0.273578 -0.000000 0.961850
vn -0.273578 -0.000000 0.961850
vn -0.273578 -0.000000 0.961850
vn -0.000000 -1.000000 0.000000
vn -0.000000 -1.000000 0.000000
vn 0.486681 -0.000000 -0.873580
vn 0.486681 -0.000000 -0.873580
vn 0.486681 -0.000000 -0.873580
vn 0.486681 -0.000000 -0.873580
vn 0.000000 1.000000 -0.000000
vn 0.000000 1.000000 -0.000000
vn 0.486681 -0.000000 0.873580
vn 0.486681 -0.000000 0.873580
vn 0.486681 -0.000000 0.873580
vn 0.486681 -0.000000 0.873580
vn -0.000000 -1.000000 0.000000
vn -0.000000 -1.000000 0.000000
vn -0.273578 -0.000000 -0.961850
vn -0.273578 -0.000000 -0.961850
vn -0.273578 -0.000000 -0.961850
vn -0.273578 -0.000000 -0.961850
s 1
g gearSimple
usemtl lambert15SG
f 2/2/1 1/1/2 9/10/3 10/11/4
f 3/3/5 2/2/1 10/11/4 11/12/6
f 4/4/7 3/3/5 11/12/6 12/13/8
f 5/5/9 4/4/7 12/13/8 13/14/10
f 6/6/11 5/5/9 13/14/10 14/15/12
f 7/7/13 6/6/11 14/15/12 15/16/14
f 8/8/15 7/7/13 15/16/14 16/17/16
f 1/9/2 8/8/15 16/17/16 9/18/3
s off
f 34/11/17 33/10/18 35/19/19 36/20/20
f 38/12/21 37/11/22 39/20/23 40/21/24
f 42/13/25 41/12/26 43/21/27 44/22/28
f 46/14/29 45/13/30 47/22/31 48/23/32
f 50/15/33 49/14/34 51/23/35 52/24/36
f 54/16/37 53/15/38 55/24/39 56/25/40
f 58/75/41 57/16/42 59/25/43 60/76/44
f 62/74/45 61/75/46 63/76/47 64/77/48
s 2
f 18/20/49 17/19/50 25/28/51 26/29/52
f 19/21/53 18/20/49 26/29/52 27/30/54
f 20/22/55 19/21/53 27/30/54 28/31/56
f 21/23/57 20/22/55 28/31/56 29/32/58
f 22/24/59 21/23/57 29/32/58 30/33/60
f 23/25/61 22/24/62 30/33/63 31/34/64
f 24/26/65 23/25/61 31/34/64 32/35/66
f 17/27/50 24/26/65 32/35/66 25/36/51
s off
f 26/29/67 25/28/68 1/37/69 2/38/70
f 27/30/71 26/29/72 2/38/73 3/39/74
f 28/31/75 27/30/76 3/39/77 4/40/78
f 29/32/79 28/31/80 4/40/81 5/41/82
f 30/33/83 29/32/84 5/41/85 6/42/86
f 31/34/87 30/33/88 6/42/89 7/43/90
f 32/35/91 31/34/92 7/43/93 8/44/94
f 25/36/95 32/35/96 8/44/97 1/45/98
s 1
f 10/11/4 9/10/3 33/47/99 34/46/100
s off
f 9/10/101 17/19/102 35/48/103 33/47/104
s 2
f 17/19/50 18/20/49 36/49/105 35/48/106
s off
f 18/20/107 10/11/108 34/46/109 36/49/110
s 1
f 11/12/6 10/11/4 37/51/111 38/50/112
s off
f 10/11/113 18/20/114 39/52/115 37/51/116
s 2
f 18/20/49 19/21/53 40/53/117 39/52/118
s off
f 19/21/119 11/12/120 38/50/121 40/53/122
s 1
f 12/13/8 11/12/6 41/55/123 42/54/124
s off
f 11/12/125 19/21/126 43/56/127 41/55/128
s 2
f 19/21/53 20/22/55 44/57/129 43/56/130
s off
f 20/22/131 12/13/132 42/54/133 44/57/134
s 1
f 13/14/10 12/13/8 45/59/135 46/58/136
s off
f 12/13/137 20/22/138 47/60/139 45/59/140
s 2
f 20/22/55 21/23/57 48/61/141 47/60/142
s off
f 21/23/143 13/14/144 46/58/145 48/61/146
s 1
f 14/15/12 13/14/10 49/63/147 50/62/148
s off
f 13/14/149 21/23/150 51/64/151 49/63/152
s 2
f 21/23/57 22/24/59 52/65/153 51/64/154
s off
f 22/24/155 14/15/156 50/62/157 52/65/158
s 1
f 15/16/14 14/15/12 53/67/159 54/66/160
s off
f 14/15/161 22/24/162 55/68/163 53/67/164
s 2
f 22/24/62 23/25/61 56/69/165 55/68/166
s off
f 23/25/167 15/16/168 54/66/169 56/69/170
s 1
f 16/17/16 15/16/14 57/71/171 58/70/172
s off
f 15/16/173 23/25/174 59/72/175 57/71/176
s 2
f 23/25/61 24/26/65 60/73/177 59/72/178
s off
f 24/26/179 16/17/180 58/70/181 60/73/182
s 1
f 9/18/3 16/17/16 61/75/183 62/74/184
s off
f 16/17/185 24/26/186 63/76/187 61/75/188
s 2
f 24/26/65 17/27/50 64/77/189 63/76/190
s off
f 17/27/191 9/18/192 62/74/193 64/77/194
